<svg xmlns="http://www.w3.org/2000/svg" viewBox="0 0 24 24" fill="currentColor" slot="icon-start">
  <g transform="translate(2, 2)">
  <path id="brand_family"
    d="M2.65 20C1.75 20 1.08333 19.8167 0.65 19.45C0.216667 19.0833 0 18.5333 0 17.8C0 16.8333 0.408333 16.2167 1.225 15.95C2.04167 15.6833 3.00833 15.55 4.125 15.55H4.65V14.15C4.65 13.5833 4.64167 13.1208 4.625 12.7625C4.60833 12.4042 4.55833 12.1083 4.475 11.875C4.39167 11.6417 4.29583 11.4792 4.1875 11.3875C4.07917 11.2958 3.93333 11.25 3.75 11.25C3.6 11.25 3.4625 11.275 3.3375 11.325C3.2125 11.375 3.10833 11.4417 3.025 11.525C2.95833 11.6083 2.91667 11.6958 2.9 11.7875C2.88333 11.8792 2.89167 11.975 2.925 12.075C3.025 12.2583 3.14167 12.4375 3.275 12.6125C3.40833 12.7875 3.475 12.9917 3.475 13.225C3.475 13.6417 3.32917 13.9958 3.0375 14.2875C2.74583 14.5792 2.39167 14.725 1.975 14.725C1.55833 14.725 1.20417 14.5792 0.9125 14.2875C0.620833 13.9958 0.475 13.6417 0.475 13.225C0.475 12.775 0.575 12.4083 0.775 12.125C0.975 11.8417 1.24583 11.6167 1.5875 11.45C1.92917 11.2833 2.325 11.1667 2.775 11.1C3.225 11.0333 3.70833 11 4.225 11C5.64167 11 6.625 11.2542 7.175 11.7625C7.725 12.2708 8 13.1667 8 14.45V18.125C8 18.4417 8.0375 18.675 8.1125 18.825C8.1875 18.975 8.31667 19.05 8.5 19.05C8.7 19.05 8.8625 18.9 8.9875 18.6C9.1125 18.3 9.19167 17.8333 9.225 17.2H9.5C9.45 18.2333 9.25417 18.9583 8.9125 19.375C8.57083 19.7917 8 20 7.2 20C6.48333 20 5.92083 19.8875 5.5125 19.6625C5.10417 19.4375 4.84167 19.1 4.725 18.65C4.55833 19.1333 4.3125 19.4792 3.9875 19.6875C3.6625 19.8958 3.21667 20 2.65 20ZM11.975 20C11.6417 20 11.3708 19.8625 11.1625 19.5875C10.9542 19.3125 10.9167 19.0167 11.05 18.7L13.6 11.975C13.7167 11.6917 13.9 11.4583 14.15 11.275C14.4 11.0917 14.6833 11 15 11C15.3167 11 15.6 11.0917 15.85 11.275C16.1 11.4583 16.2833 11.6917 16.4 11.975L18.95 18.7C19.0833 19.0167 19.0458 19.3125 18.8375 19.5875C18.6292 19.8625 18.3583 20 18.025 20C17.825 20 17.6417 19.9417 17.475 19.825C17.3083 19.7083 17.1833 19.55 17.1 19.35L16.6 17.9H13.4L12.9 19.35C12.8333 19.5333 12.7167 19.6875 12.55 19.8125C12.3833 19.9375 12.1917 20 11.975 20ZM3.875 19.275C4.09167 19.275 4.275 19.1042 4.425 18.7625C4.575 18.4208 4.65 18.0083 4.65 17.525V15.85C4.21667 15.85 3.9 15.9792 3.7 16.2375C3.5 16.4958 3.4 16.9167 3.4 17.5V17.775C3.4 18.375 3.43333 18.775 3.5 18.975C3.56667 19.175 3.69167 19.275 3.875 19.275ZM14.05 16.15H15.975L15 13.3L14.05 16.15ZM13.125 9.025C12.325 9.025 11.6875 8.74583 11.2125 8.1875C10.7375 7.62917 10.5 6.875 10.5 5.925C10.5 4.19167 11.05 2.77083 12.15 1.6625C13.25 0.554167 14.6583 0 16.375 0C17.075 0 17.6417 0.0791667 18.075 0.2375C18.5083 0.395833 18.725 0.6 18.725 0.85C18.725 0.95 18.7083 1.05 18.675 1.15C18.6417 1.25 18.5833 1.34167 18.5 1.425C18.4167 1.54167 18.3125 1.625 18.1875 1.675C18.0625 1.725 17.9333 1.73333 17.8 1.7C17.5667 1.63333 17.3 1.575 17 1.525C16.7 1.475 16.425 1.45 16.175 1.45C14.9917 1.45 14.0417 1.85 13.325 2.65C12.6083 3.45 12.25 4.50833 12.25 5.825C12.25 6.19167 12.3167 6.575 12.45 6.975C12.5833 7.375 12.8833 7.575 13.35 7.575C13.5333 7.575 13.7125 7.53333 13.8875 7.45C14.0625 7.36667 14.2167 7.25 14.35 7.1C14.6333 6.8 14.8958 6.3 15.1375 5.6C15.3792 4.9 15.6 4.05 15.8 3.05C15.8333 2.83333 15.9208 2.67917 16.0625 2.5875C16.2042 2.49583 16.4 2.45 16.65 2.45C16.95 2.45 17.1792 2.52917 17.3375 2.6875C17.4958 2.84583 17.5417 3.04167 17.475 3.275C17.275 3.99167 17.1292 4.61667 17.0375 5.15C16.9458 5.68333 16.9 6.16667 16.9 6.6C16.9 6.93333 16.9458 7.175 17.0375 7.325C17.1292 7.475 17.2667 7.55 17.45 7.55C17.6333 7.55 17.8125 7.48333 17.9875 7.35C18.1625 7.21667 18.4083 6.96667 18.725 6.6C18.7583 6.55 18.8833 6.49167 19.1 6.425C19.2333 6.425 19.3333 6.475 19.4 6.575C19.4667 6.675 19.5 6.81667 19.5 7C19.5 7.46667 19.2333 7.91667 18.7 8.35C18.1667 8.78333 17.6083 9 17.025 9C16.5917 9 16.2208 8.88333 15.9125 8.65C15.6042 8.41667 15.3917 8.08333 15.275 7.65C15.025 8.08333 14.7167 8.42083 14.35 8.6625C13.9833 8.90417 13.575 9.025 13.125 9.025ZM1 9V3.5C1 2.53333 1.34167 1.70833 2.025 1.025C2.70833 0.341667 3.53333 0 4.5 0C5.46667 0 6.29167 0.341667 6.975 1.025C7.65833 1.70833 8 2.53333 8 3.5V9H6V7H3V9H1ZM3 5H6V3.5C6 3.08333 5.85417 2.72917 5.5625 2.4375C5.27083 2.14583 4.91667 2 4.5 2C4.08333 2 3.72917 2.14583 3.4375 2.4375C3.14583 2.72917 3 3.08333 3 3.5V5Z" />
  </g>
</svg>