<svg xmlns="http://www.w3.org/2000/svg" height="20" viewBox="0 -960 960 960" width="20" fill="currentColor">
  <path d="M96-192v-72.77Q96-306 120.5-334q24.5-28 63.5-42 50-18 99.17-27t99-9q49.83 0 99 9t99.17 27q39 14 63.58 42Q668-306 668-264.77V-192H96Zm720 0v-80q0-55-28.5-95.5T710-428q54 8 103 24t87 40q36 22 54 51t18 57.72V-192H816ZM382.17-480q-58.17 0-99.17-41T242-620q0-58 41-99t99.17-41q58.16 0 99 41Q522-678 522-620t-40.83 99q-40.84 41-99 41Zm337.66-140q0 58-40.83 99-40.84 41-99 41-10 0-23.5-2t-23.5-6q27-30 41.5-68.5T589-620q0-25.13-14-63.57Q561-722 534-752q10-5 23-7t25-2q58.16 0 99 41 40.83 41 40.83 99Z"/>
</svg>
