<svg slot="icon-start" xmlns="http://www.w3.org/2000/svg" fill="currentColor" viewBox="0 0 24 24">
  <mask id="a" width="24" height="24" x="0" y="0" maskUnits="userSpaceOnUse" style="mask-type:alpha">
    <path d="M0 0h24v24H0z" />
  </mask>
  <g mask="url(#a)">
    <path
      d="m12.05 16 3.5-3.5a2 2 0 0 0 .55-1.037 1.939 1.939 0 0 0-.125-1.188 2.153 2.153 0 0 0-.75-.925A1.915 1.915 0 0 0 14.1 9c-.417 0-.792.13-1.125.387-.333.259-.642.53-.925.813a14.89 14.89 0 0 0-.938-.813A1.739 1.739 0 0 0 10 9a2.02 2.02 0 0 0-1.137.338 2.045 2.045 0 0 0-.763.912c-.167.383-.204.78-.112 1.188.091.408.279.762.562 1.062l3.5 3.5Zm-2.8 6-.4-3.2a3.79 3.79 0 0 1-.612-.3 8.27 8.27 0 0 1-.563-.375L4.7 19.375l-2.75-4.75 2.575-1.95a2.389 2.389 0 0 1-.025-.338v-.675c0-.108.008-.22.025-.337L1.95 9.375l2.75-4.75 2.975 1.25c.183-.133.375-.258.575-.375.2-.117.4-.217.6-.3l.4-3.2h5.5l.4 3.2c.217.083.42.183.612.3.192.117.38.242.563.375l2.975-1.25 2.75 4.75-2.575 1.95c.017.117.025.23.025.338v.675c0 .108-.017.22-.05.337l2.575 1.95-2.75 4.75-2.95-1.25a6.826 6.826 0 0 1-.575.375c-.2.117-.4.217-.6.3l-.4 3.2h-5.5ZM11 20h1.975l.35-2.65a5.61 5.61 0 0 0 1.438-.588c.441-.258.845-.57 1.212-.937l2.475 1.025.975-1.7-2.15-1.625c.083-.233.142-.48.175-.738a6.153 6.153 0 0 0 0-1.575 3.529 3.529 0 0 0-.175-.737l2.15-1.625-.975-1.7-2.475 1.05a5.554 5.554 0 0 0-1.213-.962 5.605 5.605 0 0 0-1.437-.588L13 4h-1.975l-.35 2.65c-.517.133-.996.33-1.437.587a5.993 5.993 0 0 0-1.213.938L5.55 7.15l-.975 1.7 2.15 1.6c-.083.25-.142.5-.175.75a6.122 6.122 0 0 0 0 1.575c.033.25.092.5.175.75l-2.15 1.625.975 1.7 2.475-1.05a5.53 5.53 0 0 0 2.65 1.55L11 20Z" />
  </g>
</svg>