<svg xmlns="http://www.w3.org/2000/svg" fill="currentColor" viewBox="0 0 20 20">
  <path fill-rule="evenodd" d="M8.1 2.9H6.9v3.2h1.2V2.9Z" clip-rule="evenodd" />
  <path
    d="m13.353 10.995 2.82-2.82a3.075 3.075 0 0 0-4.348-4.35l-2.82 2.82.848.85 2.82-2.82a1.874 1.874 0 1 1 2.652 2.65l-2.82 2.82.848.85Z" />
  <path fill-rule="evenodd"
    d="M8.174 16.174a3.074 3.074 0 1 1-4.349-4.349l2.821-2.82.848.849-2.82 2.82a1.874 1.874 0 1 0 2.651 2.651l2.821-2.82.848.848-2.82 2.82ZM13.9 11.9v1.2h3.2v-1.2h-3.2Zm-2 5.2h1.2v-3.2h-1.2v3.2Zm-9-9h3.2V6.9H2.9v1.2Z"
    clip-rule="evenodd" />
</svg>