<svg width="16" height="16" viewBox="0 0 16 16" xmlns="http://www.w3.org/2000/svg">
	<path d="M14.8542 11.9132C14.5604 11.6141 14.2613 11.3198 13.9622 11.0255C13.0223 10.0986 12.0764 9.17731 11.1308 8.2563L10.986 8.11526C10.339 7.485 9.69129 6.85537 9.04352 6.22569L9.04333 6.22551C7.44538 4.6722 5.84714 3.1186 4.25859 1.55458L4.15332 1.45099L4.15323 1.4509C3.81113 1.11426 3.46855 0.777145 3.1314 0.434954C3.11457 0.417953 3.08289 0.390866 3.04435 0.357915C2.92114 0.252565 2.72781 0.0872696 2.7253 0C2.72744 0.0721807 2.59463 0.336237 2.53726 0.450315C2.52374 0.477187 2.51441 0.495745 2.51201 0.501501C2.34561 0.907641 2.18317 1.31515 2.02139 1.72267C1.85961 2.13018 1.69783 2.53838 1.54067 2.94863C1.52508 2.98913 1.50184 3.03768 1.47693 3.08974C1.41742 3.21408 1.34836 3.35839 1.35115 3.46042C1.35317 3.53318 1.50776 3.66622 1.60676 3.75142C1.63752 3.77789 1.66292 3.79975 1.6767 3.81374C1.9385 4.08143 2.20508 4.3447 2.4712 4.60752L2.47128 4.6076L2.56286 4.69805C3.46599 5.59044 4.37522 6.47649 5.28445 7.36254L5.53236 7.60415C6.2115 8.26574 6.8913 8.92658 7.57111 9.58742L7.57144 9.58774C9.13886 11.1114 10.7063 12.6352 12.2658 14.1683L12.331 14.2324C12.6883 14.5835 13.046 14.935 13.3989 15.2913C13.4224 15.315 13.4602 15.347 13.5036 15.3838C13.6262 15.4875 13.7939 15.6293 13.8129 15.7311C13.8023 15.6734 14.0315 15.2152 14.0262 15.2296C14.1926 14.8234 14.355 14.4159 14.5168 14.0084C14.6786 13.6009 14.8404 13.1927 14.9975 12.7824C15.0099 12.7501 15.032 12.7048 15.0568 12.6538C15.1206 12.5228 15.2027 12.3541 15.1871 12.2706C15.1715 12.1874 15.0388 12.0741 14.9403 11.9899C14.9048 11.9597 14.8738 11.9332 14.8542 11.9132Z" />
	<path d="M10.4446 4.26584C10.8323 4.63874 11.2263 5.00512 11.6203 5.37151L11.6214 5.37251C11.7055 5.45068 11.7895 5.52884 11.8735 5.60707C11.9301 5.65979 11.9867 5.71249 12.0433 5.7652L12.0434 5.76527C12.4677 6.1604 12.8924 6.5558 13.3078 6.96132C13.3392 6.99197 13.389 7.03354 13.447 7.08201C13.641 7.24403 13.9273 7.48325 13.9324 7.65012C13.9303 7.57762 14.0664 7.30714 14.1225 7.19549C14.1349 7.17086 14.1434 7.15395 14.1457 7.14861C14.3121 6.74247 14.4746 6.33496 14.6363 5.92745C14.7981 5.51994 14.9599 5.11174 15.1171 4.70148C15.1327 4.66098 15.156 4.61234 15.1809 4.5602C15.2406 4.43571 15.3098 4.29123 15.3066 4.18969C15.3015 4.02401 15.0164 3.78529 14.8222 3.62271C14.7639 3.5739 14.7138 3.53195 14.6819 3.5009C14.2665 3.09536 13.8419 2.69997 13.4175 2.30483C13.3609 2.25211 13.3043 2.19938 13.2477 2.14664C13.1502 2.05571 13.0525 1.96486 12.9549 1.874C12.5745 1.51997 12.1939 1.16574 11.8187 0.80542C11.7966 0.784228 11.755 0.74984 11.7036 0.707268C11.5151 0.551378 11.1939 0.285747 11.2105 0.156419C11.1647 0.515145 10.9562 0.937041 10.7628 1.32828C10.6663 1.52365 10.5735 1.71137 10.5066 1.87977C10.4413 2.04444 10.3592 2.21829 10.2749 2.39697C10.0867 2.79596 9.88702 3.21903 9.8364 3.61753C9.82041 3.74455 10.1373 4.00764 10.3261 4.16443C10.379 4.20834 10.4219 4.24393 10.4446 4.26584Z" />
	<path d="M4.57357 9.55321C5.38907 10.3477 6.20722 11.1394 7.02669 11.9297C7.10263 11.9681 7.1548 12.0141 7.17262 12.0703C7.19398 12.1404 7.10263 12.3294 7.03724 12.4647C7.01365 12.5136 6.99344 12.5554 6.98311 12.5821C6.82595 12.9924 6.66417 13.4006 6.50239 13.8081C6.48877 13.8419 6.44255 13.9458 6.37983 14.0867C6.35739 14.1371 6.33285 14.1922 6.30693 14.2506C6.13789 14.6773 5.96818 15.1047 5.79848 15.5314L5.65188 15.3894C5.30973 15.2185 4.48738 15.2206 4.18288 15.2213C4.15241 15.2214 4.12713 15.2215 4.10803 15.2213C3.25951 15.2152 2.26439 15.3242 1.6516 16C1.71212 15.9329 1.75438 15.7821 1.79119 15.6507C1.8086 15.5885 1.82479 15.5307 1.84112 15.4882C1.99828 15.078 2.16006 14.6698 2.32184 14.2622C2.37856 14.1196 2.43401 13.941 2.49306 13.7507C2.60382 13.3939 2.72727 12.9963 2.89567 12.7179C2.40306 12.2377 1.91111 11.7568 1.42379 11.2711C1.38389 11.2312 1.31496 11.1736 1.23401 11.106C1.00011 10.9105 0.665827 10.6312 0.641299 10.4533C0.629035 10.3641 0.707066 10.2035 0.769741 10.0745C0.794809 10.0229 0.81742 9.9764 0.830814 9.94151C0.987973 9.53126 1.14975 9.12306 1.31153 8.71555C1.47331 8.30804 1.63576 7.90052 1.80216 7.49438C1.8015 7.49713 2.02469 7.05874 2.01545 6.99288C2.04147 7.18061 2.39279 7.47302 2.63913 7.67806C2.72408 7.74877 2.79655 7.80908 2.83888 7.85113C3.41336 8.42261 3.99313 8.98791 4.57357 9.55321Z" />
</svg>
